<svg width="170" height="42" viewBox="0 0 170 42" fill="none" xmlns="http://www.w3.org/2000/svg">
<g clip-path="url(#clip0_629_15457)">
<path d="M47.9733 20.9101L43.2197 17.181C44.0465 14.9155 45.5725 9.70372 43.5389 6.61099C42.8462 5.561 41.4383 4.31372 38.6736 4.31372C35.9089 4.31372 34.4627 5.58645 33.7667 6.6269C31.7203 9.73872 33.291 14.9633 34.1275 17.2128L32.6398 18.4537L29.128 15.9083C30.1496 13.226 32.2726 6.53781 29.7665 2.74827C28.9971 1.54872 27.4041 0.132812 24.2627 0.132812C21.1213 0.132812 19.5282 1.54872 18.7461 2.73872C16.2527 6.52827 18.3757 13.2165 19.3846 15.8987L15.8728 18.4442L14.3979 17.2255C15.2343 14.976 16.805 9.75145 14.7586 6.63963C14.0627 5.58327 12.6484 4.32645 9.85179 4.32645C7.05517 4.32645 5.67921 5.57372 4.98644 6.62372C2.95283 9.71645 4.46926 14.9283 5.30569 17.181L0.552074 20.9101C0.339804 21.075 0.178419 21.2962 0.0863899 21.5483C-0.00563898 21.8004 -0.0245928 22.0732 0.031698 22.3355C1.21894 27.8624 4.27235 32.8162 8.68223 36.37C13.0921 39.9237 18.5916 41.8624 24.2627 41.8624C29.9338 41.8624 35.4333 39.9237 39.8431 36.37C44.253 32.8162 47.3064 27.8624 48.4937 22.3355C48.55 22.0732 48.531 21.8004 48.439 21.5483C48.347 21.2962 48.1856 21.075 47.9733 20.9101ZM3.0486 22.5901L7.92353 18.7719C8.17231 18.5764 8.34962 18.3047 8.42808 17.9988C8.50655 17.6929 8.48182 17.3697 8.35771 17.0792C7.31696 14.6483 6.13893 10.0792 7.39996 8.17009C7.56597 7.9219 8.06719 7.16463 9.86456 7.16463C11.6619 7.16463 12.1983 7.93145 12.3643 8.18281C13.6221 10.0919 12.4186 14.6451 11.3682 17.0665C11.2358 17.3549 11.2034 17.6791 11.2763 17.9878C11.3491 18.2966 11.523 18.5725 11.7705 18.7719L13.4848 20.1878L11.7481 21.4605C11.572 21.5925 11.4286 21.7629 11.329 21.9587C11.2294 22.1545 11.1762 22.3705 11.1735 22.5901V34.611C7.16837 31.6453 4.30143 27.4036 3.0486 22.5901ZM14.0467 36.4437V23.3346L21.996 17.5596C22.2607 17.3685 22.452 17.0932 22.5385 16.7791C22.625 16.465 22.6014 16.1309 22.4717 15.8319C21.5523 13.716 19.3399 7.06281 21.1532 4.31054C21.7342 3.42599 22.7494 2.99963 24.2627 2.99963C25.7759 2.99963 26.7911 3.42599 27.3722 4.31054C29.1855 7.06281 26.9731 13.716 26.0537 15.8319C25.924 16.1309 25.9004 16.465 25.9869 16.7791C26.0734 17.0932 26.2647 17.3685 26.5294 17.5596L34.4786 23.3346V36.4437C31.3319 38.121 27.8184 38.9985 24.2499 38.9985C20.6814 38.9985 17.168 38.121 14.0212 36.4437H14.0467ZM37.3806 34.6237V22.5901C37.3805 22.3643 37.327 22.1418 37.2244 21.9406C37.1217 21.7393 36.9729 21.5651 36.79 21.4319L35.0533 20.1592L36.7549 18.7719C36.9953 18.5744 37.1647 18.3042 37.2373 18.0022C37.3098 17.7002 37.2817 17.3829 37.1571 17.0983C36.4484 15.4755 34.7468 10.3624 36.1611 8.21463C36.3271 7.96327 36.8315 7.19645 38.6608 7.19645C40.4901 7.19645 40.9594 7.95372 41.1254 8.2019C42.4024 10.111 41.2084 14.6737 40.1677 17.111C40.0436 17.4015 40.0188 17.7247 40.0973 18.0306C40.1758 18.3365 40.3531 18.6082 40.6018 18.8037L45.4768 22.6219C44.2242 27.4262 41.3634 31.6603 37.3679 34.6237H37.3806Z" fill="white"/>
<path d="M71.1924 1.43164H57.1454C57.0608 1.43164 56.9795 1.46516 56.9197 1.52483C56.8598 1.5845 56.8262 1.66544 56.8262 1.74982V4.93164C56.8262 5.01603 56.8598 5.09696 56.9197 5.15663C56.9795 5.2163 57.0608 5.24982 57.1454 5.24982H62.0938V36.1135C62.0938 36.1978 62.1274 36.2788 62.1873 36.3384C62.2472 36.3981 62.3284 36.4316 62.413 36.4316H65.9248C66.0094 36.4316 66.0906 36.3981 66.1505 36.3384C66.2104 36.2788 66.244 36.1978 66.244 36.1135V5.24982H71.1924C71.277 5.24982 71.3582 5.2163 71.4181 5.15663C71.478 5.09696 71.5116 5.01603 71.5116 4.93164V1.74982C71.5116 1.66544 71.478 1.5845 71.4181 1.52483C71.3582 1.46516 71.277 1.43164 71.1924 1.43164Z" fill="white"/>
<path d="M77.7371 11.6133H71.831C71.7463 11.6133 71.6651 11.6468 71.6052 11.7065C71.5454 11.7661 71.5117 11.8471 71.5117 11.9315V40.2496C71.5117 40.334 71.5454 40.415 71.6052 40.4746C71.6651 40.5343 71.7463 40.5678 71.831 40.5678H75.3427C75.4274 40.5678 75.5086 40.5343 75.5684 40.4746C75.6283 40.415 75.662 40.334 75.662 40.2496V36.4315H77.7371C79.3881 36.4315 80.9716 35.7778 82.1391 34.6142C83.3065 33.4506 83.9624 31.8725 83.9624 30.2269V17.8178C83.9624 16.1723 83.3065 14.5941 82.1391 13.4306C80.9716 12.267 79.3881 11.6133 77.7371 11.6133ZM77.7371 32.2951H75.662V15.7496H77.7371C78.2867 15.7522 78.813 15.9709 79.2016 16.3582C79.5902 16.7455 79.8097 17.2701 79.8122 17.8178V30.2269C79.8097 30.7747 79.5902 31.2993 79.2016 31.6866C78.813 32.0739 78.2867 32.2926 77.7371 32.2951Z" fill="white"/>
<path d="M163.774 11.6133H155.473C153.822 11.6133 152.239 12.267 151.071 13.4306C149.904 14.5941 149.248 16.1723 149.248 17.8178V30.2269C149.248 31.8725 149.904 33.4506 151.071 34.6142C152.239 35.7778 153.822 36.4315 155.473 36.4315H157.549V40.2496C157.549 40.334 157.582 40.415 157.642 40.4746C157.702 40.5343 157.783 40.5678 157.868 40.5678H161.38C161.464 40.5678 161.545 40.5343 161.605 40.4746C161.665 40.415 161.699 40.334 161.699 40.2496V36.4315H163.774C165.425 36.4315 167.008 35.7778 168.176 34.6142C169.343 33.4506 169.999 31.8725 169.999 30.2269V17.8178C169.999 16.1723 169.343 14.5941 168.176 13.4306C167.008 12.267 165.425 11.6133 163.774 11.6133ZM157.549 32.2951H155.473C154.923 32.2943 154.396 32.0761 154.007 31.6884C153.618 31.3007 153.399 30.7752 153.398 30.2269V17.8178C153.4 17.2698 153.619 16.7448 154.008 16.3573C154.397 15.9698 154.924 15.7513 155.473 15.7496H157.549V32.2951ZM165.849 30.2269C165.848 30.7752 165.629 31.3007 165.24 31.6884C164.851 32.0761 164.324 32.2943 163.774 32.2951H161.699V15.7496H163.774C164.324 15.7513 164.851 15.9698 165.239 16.3573C165.628 16.7448 165.847 17.2698 165.849 17.8178V30.2269Z" fill="white"/>
<path d="M95.4746 11.9315V27.7133C95.4815 28.2243 95.3032 28.7206 94.9725 29.111C94.6417 29.5015 94.1807 29.7599 93.6741 29.8387C93.3809 29.8772 93.0828 29.8529 92.7998 29.7674C92.5168 29.6819 92.2553 29.5372 92.0329 29.3429C91.8105 29.1487 91.6323 28.9093 91.5101 28.6409C91.3879 28.3725 91.3246 28.0812 91.3244 27.7865V11.9315C91.3244 11.8471 91.2908 11.7661 91.2309 11.7065C91.171 11.6468 91.0898 11.6133 91.0051 11.6133H87.4934C87.4087 11.6133 87.3275 11.6468 87.2677 11.7065C87.2078 11.7661 87.1742 11.8471 87.1742 11.9315V27.6051C87.1592 29.0706 87.6539 30.496 88.5739 31.6393C89.494 32.7825 90.7829 33.573 92.2215 33.8765C93.3082 34.089 94.4323 34.0044 95.4746 33.6315V34.3633C95.4721 34.911 95.2527 35.4356 94.864 35.8229C94.4754 36.2102 93.9491 36.429 93.3995 36.4315H89.4089C89.3242 36.4315 89.243 36.465 89.1832 36.5247C89.1233 36.5843 89.0896 36.6653 89.0896 36.7496V40.2496C89.0896 40.334 89.1233 40.415 89.1832 40.4746C89.243 40.5343 89.3242 40.5678 89.4089 40.5678H93.3995C95.0506 40.5678 96.634 39.9141 97.8015 38.7506C98.969 37.587 99.6249 36.0088 99.6249 34.3633V11.9315C99.6249 11.8471 99.5912 11.7661 99.5314 11.7065C99.4715 11.6468 99.3903 11.6133 99.3056 11.6133H95.7939C95.7092 11.6133 95.628 11.6468 95.5681 11.7065C95.5083 11.7661 95.4746 11.8471 95.4746 11.9315Z" fill="white"/>
<path d="M115.374 11.6133H111.862C111.777 11.6133 111.696 11.6468 111.636 11.7065C111.576 11.7661 111.543 11.8471 111.543 11.9315V18.9315C111.54 19.4792 111.321 20.0038 110.932 20.3911C110.543 20.7784 110.017 20.9971 109.468 20.9996H107.392V11.9315C107.392 11.8471 107.359 11.7661 107.299 11.7065C107.239 11.6468 107.158 11.6133 107.073 11.6133H103.561C103.477 11.6133 103.396 11.6468 103.336 11.7065C103.276 11.7661 103.242 11.8471 103.242 11.9315V36.1133C103.242 36.1977 103.276 36.2786 103.336 36.3383C103.396 36.3979 103.477 36.4315 103.561 36.4315H107.073C107.158 36.4315 107.239 36.3979 107.299 36.3383C107.359 36.2786 107.392 36.1977 107.392 36.1133V25.6133H109.468C110.017 25.6158 110.543 25.8345 110.932 26.2218C111.321 26.6091 111.54 27.1337 111.543 27.6815V36.1133C111.543 36.1977 111.576 36.2786 111.636 36.3383C111.696 36.3979 111.777 36.4315 111.862 36.4315H115.374C115.458 36.4315 115.54 36.3979 115.599 36.3383C115.659 36.2786 115.693 36.1977 115.693 36.1133V27.6815C115.694 26.8693 115.534 26.0648 115.223 25.3141C114.912 24.5635 114.455 23.8812 113.88 23.3065C114.455 22.7317 114.912 22.0495 115.223 21.2988C115.534 20.5481 115.694 19.7437 115.693 18.9315V11.9315C115.693 11.8471 115.659 11.7661 115.599 11.7065C115.54 11.6468 115.458 11.6133 115.374 11.6133Z" fill="white"/>
<path d="M124.827 11.6133C123.176 11.6133 121.592 12.267 120.425 13.4306C119.257 14.5941 118.602 16.1723 118.602 17.8178V30.2269C118.602 31.8725 119.257 33.4506 120.425 34.6142C121.592 35.7778 123.176 36.4315 124.827 36.4315C126.478 36.4315 128.061 35.7778 129.229 34.6142C130.396 33.4506 131.052 31.8725 131.052 30.2269V17.8178C131.052 16.1723 130.396 14.5941 129.229 13.4306C128.061 12.267 126.478 11.6133 124.827 11.6133ZM124.827 32.2951C124.277 32.2943 123.749 32.0761 123.361 31.6884C122.972 31.3007 122.753 30.7752 122.752 30.2269V17.8178C122.752 17.2693 122.97 16.7433 123.36 16.3554C123.749 15.9675 124.277 15.7496 124.827 15.7496C125.377 15.7496 125.905 15.9675 126.294 16.3554C126.683 16.7433 126.902 17.2693 126.902 17.8178V30.2269C126.901 30.7752 126.682 31.3007 126.293 31.6884C125.904 32.0761 125.377 32.2943 124.827 32.2951Z" fill="white"/>
<path d="M142.226 11.9315V21.9542H138.076V11.9315C138.076 11.8471 138.042 11.7661 137.983 11.7065C137.923 11.6468 137.841 11.6133 137.757 11.6133H134.245C134.16 11.6133 134.079 11.6468 134.019 11.7065C133.959 11.7661 133.926 11.8471 133.926 11.9315V36.1133C133.926 36.1977 133.959 36.2786 134.019 36.3383C134.079 36.3979 134.16 36.4315 134.245 36.4315H137.757C137.841 36.4315 137.923 36.3979 137.983 36.3383C138.042 36.2786 138.076 36.1977 138.076 36.1133V26.0906H142.226V36.1133C142.226 36.1977 142.26 36.2786 142.32 36.3383C142.38 36.3979 142.461 36.4315 142.545 36.4315H146.057C146.142 36.4315 146.223 36.3979 146.283 36.3383C146.343 36.2786 146.376 36.1977 146.376 36.1133V11.9315C146.376 11.8471 146.343 11.7661 146.283 11.7065C146.223 11.6468 146.142 11.6133 146.057 11.6133H142.545C142.461 11.6133 142.38 11.6468 142.32 11.7065C142.26 11.7661 142.226 11.8471 142.226 11.9315Z" fill="white"/>
</g>
<defs>
<clipPath id="clip0_629_15457">
<rect width="170" height="42" fill="white"/>
</clipPath>
</defs>
</svg>
